<?xml version="1.0" encoding="UTF-8"?>
<svg version="1.1" xmlns="http://www.w3.org/2000/svg" width="823" height="164">
<path d="M0 0 C11.88 0 23.76 0 36 0 C45.76788056 11.09352149 45.76788056 11.09352149 47.91015625 16.2890625 C51.02399159 23.27456553 54.97113462 29.4486385 59.1875 35.8125 C60.51740147 37.88865622 61.84428294 39.96675038 63.16796875 42.046875 C68.33522381 50.10482007 73.64833585 58.06372532 79 66 C85.32847505 56.25253949 91.61722771 46.48051216 97.875 36.6875 C102.99905974 28.67333629 108.13615197 20.66801142 113.3125 12.6875 C113.84536621 11.86403076 114.37823242 11.04056152 114.92724609 10.19213867 C115.4217627 9.4313501 115.9162793 8.67056152 116.42578125 7.88671875 C116.85286377 7.22889404 117.27994629 6.57106934 117.7199707 5.89331055 C119.07977436 3.88200455 120.54329468 1.94227376 122 0 C133.88 0 145.76 0 158 0 C158 52.8 158 105.6 158 160 C146.12 160 134.24 160 122 160 C121.505 112.48 121.505 112.48 121 64 C111.81344615 77.98304223 111.81344615 77.98304223 102.6328125 91.9699707 C91.11791869 109.48651861 91.11791869 109.48651861 85.41796875 117.00073242 C84.04689957 118.93387387 82.99442835 120.85258049 82 123 C78.91943359 123.57299805 78.91943359 123.57299805 75 123 C72.20699029 120.32417704 70.31489275 117.10783997 68.2890625 113.83203125 C67.67662689 112.88623703 67.06419128 111.94044281 66.43319702 110.96598816 C64.47368827 107.92914721 62.5489367 104.87197342 60.625 101.8125 C58.70070392 98.8047584 56.76956867 95.80148386 54.83822632 92.79826355 C53.64021888 90.92967006 52.44757293 89.05762259 51.2616272 87.18135071 C46.6907797 79.96472083 41.87654106 73.04389264 37 66 C36.67 97.02 36.34 128.04 36 160 C24.12 160 12.24 160 0 160 C0 107.2 0 54.4 0 0 Z " fill="#FEFEFE" transform="translate(149,2)"/>
<path d="M0 0 C11.88 0 23.76 0 36 0 C36 20.46 36 40.92 36 62 C56.79 62 77.58 62 99 62 C99 41.54 99 21.08 99 0 C110.88 0 122.76 0 135 0 C135 52.8 135 105.6 135 160 C123.12 160 111.24 160 99 160 C99 138.88 99 117.76 99 96 C78.21 96 57.42 96 36 96 C36 117.12 36 138.24 36 160 C24.12 160 12.24 160 0 160 C0 107.2 0 54.4 0 0 Z " fill="#FEFEFE" transform="translate(543,2)"/>
<path d="M0 0 C1.18335937 0.4125 2.36671875 0.825 3.5859375 1.25 C10.1836792 3.81336101 15.98452437 7.06847506 21.75 11.125 C22.34699707 11.54475098 22.94399414 11.96450195 23.55908203 12.39697266 C26.65256106 14.67898822 28.44370626 16.51533521 30 20 C29.63237549 20.50337891 29.26475098 21.00675781 28.88598633 21.52539062 C27.19202494 23.84823351 25.50224782 26.17409039 23.8125 28.5 C23.23435547 29.29148438 22.65621094 30.08296875 22.06054688 30.8984375 C18.49158739 35.81835905 15.16140426 40.80839074 12 46 C8.80159618 44.43816558 5.90433297 42.65810629 2.9375 40.6875 C-7.37149758 34.08093279 -17.5895555 29.64584041 -29.9375 29.625 C-31.07735352 29.58826172 -31.07735352 29.58826172 -32.24023438 29.55078125 C-37.88922915 29.52183678 -42.32459726 30.74581343 -47 34 C-49.52157588 37.43851256 -50 39.30507141 -50 43.5625 C-48.39790421 49.06970426 -45.41273587 51.13666141 -40.625 54.0625 C-35.10079725 56.63499516 -29.15840046 57.92291015 -23.27636719 59.41845703 C17.09177802 69.73129722 17.09177802 69.73129722 28.4921875 87.9609375 C32.15852072 95.35059357 33.55916066 102.01377425 33.5 110.25 C33.49500488 111.1680542 33.49000977 112.0861084 33.48486328 113.03198242 C33.19647037 124.34195685 29.57444757 133.50229887 22 142 C21.52304688 142.59167969 21.04609375 143.18335938 20.5546875 143.79296875 C11.7519357 153.81218122 -3.14782709 158.48328394 -16 160 C-39.97803472 161.4555985 -62.49855688 155.92555932 -82.3125 142.0625 C-82.89966797 141.65555908 -83.48683594 141.24861816 -84.09179688 140.8293457 C-88.06880555 137.96305874 -90.99429983 134.87413886 -94 131 C-87.15487605 122.5300234 -80.11335539 114.24475202 -73 106 C-70.07153324 107.42731993 -67.48582937 108.86928912 -65 111 C-65 111.66 -65 112.32 -65 113 C-63.92685547 113.39058594 -63.92685547 113.39058594 -62.83203125 113.7890625 C-59.86822013 115.05634725 -57.39070122 116.6238456 -54.6875 118.375 C-42.95570327 125.27012961 -28.18163097 128.42773682 -14.7890625 125.234375 C-8.29218174 123.09640638 -8.29218174 123.09640638 -4 118 C-3.03313459 113.1173297 -3.43246212 109.11405584 -5.6875 104.6875 C-13.40672526 97.15809176 -27.04923071 95.67129742 -37.10913086 93.23046875 C-50.7782744 89.88633577 -64.45184041 85.84494895 -75 76 C-75 75.34 -75 74.68 -75 74 C-75.66 74 -76.32 74 -77 74 C-85.21301804 64.32282275 -87.75398906 52.44081952 -87 40 C-85.68537382 27.17300458 -80.43632781 17.75004942 -71 9 C-51.40682852 -6.6961871 -23.21143019 -8.23465373 0 0 Z " fill="#FEFEFE" transform="translate(94,4)"/>
<path d="M0 0 C1.94065375 1.40138616 3.59091482 2.71701913 5.13671875 4.54296875 C5.13671875 5.20296875 5.13671875 5.86296875 5.13671875 6.54296875 C4.47671875 6.54296875 3.81671875 6.54296875 3.13671875 6.54296875 C2.91757812 7.21457031 2.6984375 7.88617187 2.47265625 8.578125 C0.72445842 12.45789737 -1.67701933 15.60027703 -4.23828125 18.98046875 C-5.20567598 20.26989729 -6.1718398 21.56025032 -7.13671875 22.8515625 C-7.60045898 23.4688623 -8.06419922 24.08616211 -8.54199219 24.72216797 C-9.79558155 26.44967526 -10.94807058 28.21302018 -12.08984375 30.015625 C-12.67507813 30.84964844 -13.2603125 31.68367188 -13.86328125 32.54296875 C-14.52328125 32.54296875 -15.18328125 32.54296875 -15.86328125 32.54296875 C-16.43175781 31.96546875 -17.00023437 31.38796875 -17.5859375 30.79296875 C-27.46053602 21.03693316 -42.15944896 16.27025683 -55.73828125 16.10546875 C-56.43993408 16.09515625 -57.14158691 16.08484375 -57.86450195 16.07421875 C-64.2306302 16.18320965 -68.60368533 18.03657147 -73.86328125 21.54296875 C-75.42466455 26.22711865 -75.50481649 30.57253909 -73.98828125 35.23046875 C-67.65554386 42.12197709 -57.48437519 43.92009382 -48.73828125 45.98046875 C-34.11221883 49.61496162 -19.21693351 53.46490611 -6.86328125 62.54296875 C-6.86328125 63.20296875 -6.86328125 63.86296875 -6.86328125 64.54296875 C-6.28578125 64.76984375 -5.70828125 64.99671875 -5.11328125 65.23046875 C0.82230167 68.69289212 4.59802814 76.32143299 6.8984375 82.6328125 C10.15470146 95.03432843 8.77614681 108.92229082 2.88671875 120.29296875 C-5.17435666 133.54470696 -16.18960105 140.16480776 -30.86328125 144.54296875 C-31.65992188 144.79046875 -32.4565625 145.03796875 -33.27734375 145.29296875 C-55.59407662 150.97072411 -81.201873 144.74884095 -100.61328125 133.29296875 C-107.50830577 129.07006132 -114.09548264 124.22484113 -119.86328125 118.54296875 C-119.86328125 116.54296875 -119.86328125 116.54296875 -117.92578125 114.54296875 C-117.47074219 114.1046875 -117.01570312 113.66640625 -116.546875 113.21484375 C-110.09330865 106.80619782 -104.32006297 99.80698043 -98.86328125 92.54296875 C-96.86328125 93.54296875 -94.86328125 94.54296875 -92.86328125 95.54296875 C-92.86328125 96.20296875 -92.86328125 96.86296875 -92.86328125 97.54296875 C-92.074375 97.91808594 -92.074375 97.91808594 -91.26953125 98.30078125 C-88.83147992 99.55938567 -86.49455838 100.95029313 -84.14233398 102.36108398 C-70.75590834 110.31357974 -56.56902055 114.79587689 -40.8671875 112.01171875 C-36.2796924 110.75748532 -32.73969327 109.5449333 -29.86328125 105.54296875 C-28.24615688 100.69159564 -28.16643452 97.02376806 -30.36328125 92.35546875 C-36.40014101 85.56400152 -45.37158328 84.19844246 -53.86026001 82.16546631 C-94.36954815 72.40847541 -94.36954815 72.40847541 -105.296875 56.44921875 C-112.23612786 44.75338604 -113.53253697 32.21205377 -111.2421875 18.9453125 C-107.67487817 5.64321237 -99.44197185 -3.33499013 -87.86328125 -10.45703125 C-58.11457829 -25.51547124 -26.48707899 -17.07666195 0 0 Z " fill="#FEFEFE" transform="translate(814.86328125,17.45703125)"/>
<path d="M0 0 C43.56 0 87.12 0 132 0 C132 11.22 132 22.44 132 34 C116.16 34 100.32 34 84 34 C84 75.58 84 117.16 84 160 C72.12 160 60.24 160 48 160 C48 118.42 48 76.84 48 34 C32.16 34 16.32 34 0 34 C0 22.78 0 11.56 0 0 Z " fill="#FEFEFE" transform="translate(393,2)"/>
<path d="M0 0 C11.88 0 23.76 0 36 0 C36 52.8 36 105.6 36 160 C24.12 160 12.24 160 0 160 C0 107.2 0 54.4 0 0 Z " fill="#FEFEFE" transform="translate(337,2)"/>
</svg>
