<?xml version="1.0" encoding="UTF-8"?>
<svg version="1.1" xmlns="http://www.w3.org/2000/svg" width="328" height="328">
<path d="M0 0 C108.24 0 216.48 0 328 0 C328 108.24 328 216.48 328 328 C219.76 328 111.52 328 0 328 C0 219.76 0 111.52 0 0 Z " fill="#B6DDE5" transform="translate(0,0)"/>
<path d="M0 0 C3.96 0 7.92 0 12 0 C15.00115495 3.31888729 16.64908567 5.58749422 18.625 9.4375 C19.61422209 11.20869071 20.60626639 12.97830911 21.6015625 14.74609375 C22.01744629 15.53685303 22.43333008 16.3276123 22.86181641 17.14233398 C23.8699299 19.15539039 23.8699299 19.15539039 26 20 C26.35771484 19.00419922 26.35771484 19.00419922 26.72265625 17.98828125 C28.34802062 14.18582331 30.2874432 10.71467325 32.4375 7.1875 C32.81326172 6.49462891 33.18902344 5.80175781 33.57617188 5.08789062 C34.80859375 3.10546875 34.80859375 3.10546875 38 0 C41.63 0 45.26 0 49 0 C49 16.5 49 33 49 50 C45.37 50 41.74 50 38 50 C37.67 40.76 37.34 31.52 37 22 C33.87611034 26.88321839 33.87611034 26.88321839 30.77832031 31.78295898 C30.38225586 32.38954346 29.98619141 32.99612793 29.578125 33.62109375 C29.18012695 34.2442749 28.78212891 34.86745605 28.37207031 35.50952148 C27 37 27 37 23 38 C19.7 33.05 16.4 28.1 13 23 C12.67 31.91 12.34 40.82 12 50 C8.04 50 4.08 50 0 50 C0 33.5 0 17 0 0 Z " fill="#FDFEFE" transform="translate(82,139)"/>
<path d="M0 0 C3.63 0 7.26 0 11 0 C11 6.27 11 12.54 11 19 C17.27 19 23.54 19 30 19 C30 12.73 30 6.46 30 0 C33.96 0 37.92 0 42 0 C42 16.5 42 33 42 50 C38.04 50 34.08 50 30 50 C30 43.4 30 36.8 30 30 C23.73 30 17.46 30 11 30 C11 36.6 11 43.2 11 50 C7.37 50 3.74 50 0 50 C0 33.5 0 17 0 0 Z " fill="#FDFEFE" transform="translate(205,139)"/>
<path d="M0 0 C3.125 2.1875 3.125 2.1875 5 4 C3.68775452 7.93673644 2.08089673 10.22719294 -1 13 C-2.670625 12.01 -2.670625 12.01 -4.375 11 C-9.25057105 8.51852656 -13.63783386 8.60443037 -19 9 C-19.05167527 11.42267086 -19.05167527 11.42267086 -18 14 C-15.60806495 15.2999647 -13.55879253 16.15005143 -11 17 C3.45783133 21.91566265 3.45783133 21.91566265 6 27 C6.57816145 31.8228911 7.08133629 36.7832606 4.90625 41.2421875 C1.12929283 45.92320357 -3.2466389 48.41904498 -9.24609375 49.34765625 C-16.40568622 49.79441482 -22.86555073 47.64289143 -29 44 C-31.3515625 41.32421875 -31.3515625 41.32421875 -33 39 C-31.02 36.69 -29.04 34.38 -27 32 C-23 34 -23 34 -20.3125 35.625 C-16.12155701 37.36463671 -12.48511295 37.46645175 -8 37 C-7.01 36.505 -7.01 36.505 -6 36 C-6.495 33.525 -6.495 33.525 -7 31 C-8.08539063 30.69707031 -9.17078125 30.39414063 -10.2890625 30.08203125 C-11.73460284 29.6596331 -13.17990289 29.23641202 -14.625 28.8125 C-15.33785156 28.61591797 -16.05070312 28.41933594 -16.78515625 28.21679688 C-22.60148044 26.48257177 -27.22149837 24.07195736 -30.375 18.625 C-31.52363152 13.80074763 -31.67377598 9.79464971 -29.4375 5.3125 C-22.84366144 -5.16699343 -10.10540297 -4.07971505 0 0 Z " fill="#FDFEFE" transform="translate(285,141)"/>
<path d="M0 0 C3.91810345 2.2112069 3.91810345 2.2112069 5.125 4.625 C3.145 7.265 1.165 9.905 -0.875 12.625 C-2.195 11.965 -3.515 11.305 -4.875 10.625 C-9.49219606 8.54689591 -12.86092166 8.26033976 -17.875 8.625 C-18.205 10.275 -18.535 11.925 -18.875 13.625 C-14.88196285 15.44790826 -11.0583844 16.8759005 -6.8125 18 C-1.35105083 19.58772723 2.01631311 21.84536728 5.5 26.4375 C6.75307541 30.82326393 6.96093777 34.61229146 5.21484375 38.81640625 C2.09126759 44.27010996 -1.17591973 46.55421361 -7.25 48.3125 C-15.76434777 49.32611283 -22.66924604 48.27109355 -29.84375 43.24609375 C-31.23511853 42.09427688 -32.56373803 40.86724818 -33.875 39.625 C-31.895 36.985 -29.915 34.345 -27.875 31.625 C-25.13314847 32.673355 -22.65909929 33.75257769 -20.125 35.25 C-15.98367621 37.00209853 -12.32220035 37.11185141 -7.875 36.625 C-6.57866379 35.55854885 -6.57866379 35.55854885 -6.8125 33.0625 C-6.833125 32.258125 -6.85375 31.45375 -6.875 30.625 C-7.96039063 30.31046875 -9.04578125 29.9959375 -10.1640625 29.671875 C-11.60953277 29.24011115 -13.05483657 28.80778975 -14.5 28.375 C-15.21285156 28.17003906 -15.92570312 27.96507812 -16.66015625 27.75390625 C-22.66606646 25.93560316 -27.57678164 23.96179305 -30.75 18.25 C-31.87131064 14.63688795 -32.43042929 12.35431097 -31.875 8.625 C-25.1001044 -3.47302785 -12.41093634 -6.10668358 0 0 Z " fill="#FDFEFE" transform="translate(69.875,141.375)"/>
<path d="M0 0 C13.53 0 27.06 0 41 0 C41 3.63 41 7.26 41 11 C36.05 11 31.1 11 26 11 C26 23.87 26 36.74 26 50 C22.37 50 18.74 50 15 50 C15 37.13 15 24.26 15 11 C10.05 11 5.1 11 0 11 C0 7.37 0 3.74 0 0 Z " fill="#FEFEFE" transform="translate(158,139)"/>
<path d="M0 0 C3.63 0 7.26 0 11 0 C11 16.5 11 33 11 50 C7.37 50 3.74 50 0 50 C0 33.5 0 17 0 0 Z " fill="#FEFEFE" transform="translate(141,139)"/>
<path d="M0 0 C0.33 0 0.66 0 1 0 C1 10.56 1 21.12 1 32 C-9.56 32 -20.12 32 -31 32 C-28.77364249 30.88682125 -26.5367409 29.7921952 -24.265625 28.7734375 C-12.18684527 23.17213809 -6.08327358 16.31242736 -1 4 C-0.62967296 2.67646429 -0.27877263 1.34579891 0 0 Z " fill="#FFFFFF" transform="translate(327,296)"/>
<path d="M0 0 C1.11317875 2.22635751 2.2078048 4.4632591 3.2265625 6.734375 C8.93766281 19.04993209 15.73492702 24.49823869 28 30 C29.32 30.66 30.64 31.32 32 32 C21.44 32 10.88 32 0 32 C0 21.44 0 10.88 0 0 Z " fill="#FFFFFF" transform="translate(0,296)"/>
<path d="M0 0 C10.56 0 21.12 0 32 0 C32 10.56 32 21.12 32 32 C30.88682125 29.77364249 29.7921952 27.5367409 28.7734375 25.265625 C23.06233719 12.95006791 16.26507298 7.50176131 4 2 C2.68 1.34 1.36 0.68 0 0 Z " fill="#FFFFFF" transform="translate(296,0)"/>
<path d="M0 0 C10.56 0 21.12 0 32 0 C29.77364249 1.11317875 27.5367409 2.2078048 25.265625 3.2265625 C12.95006791 8.93766281 7.50176131 15.73492702 2 28 C1.34 29.32 0.68 30.64 0 32 C0 21.44 0 10.88 0 0 Z " fill="#FFFFFF" transform="translate(0,0)"/>
</svg>
